<svg id="visual" viewBox="0 0 900 300" width="900" height="300" xmlns="http://www.w3.org/2000/svg" xmlns:xlink="http://www.w3.org/1999/xlink" version="1.1"><rect x="0" y="0" width="900" height="300" fill="#212529"></rect><path d="M0 113L21.5 119.7C43 126.3 86 139.7 128.8 142.7C171.7 145.7 214.3 138.3 257.2 138C300 137.7 343 144.3 385.8 143.5C428.7 142.7 471.3 134.3 514.2 123.3C557 112.3 600 98.7 642.8 100.2C685.7 101.7 728.3 118.3 771.2 131.5C814 144.7 857 154.3 878.5 159.2L900 164L900 301L878.5 301C857 301 814 301 771.2 301C728.3 301 685.7 301 642.8 301C600 301 557 301 514.2 301C471.3 301 428.7 301 385.8 301C343 301 300 301 257.2 301C214.3 301 171.7 301 128.8 301C86 301 43 301 21.5 301L0 301Z" fill="#212529"></path><path d="M0 131L21.5 135.3C43 139.7 86 148.3 128.8 156.3C171.7 164.3 214.3 171.7 257.2 174.5C300 177.3 343 175.7 385.8 165.2C428.7 154.7 471.3 135.3 514.2 132.5C557 129.7 600 143.3 642.8 154.8C685.7 166.3 728.3 175.7 771.2 170.7C814 165.7 857 146.3 878.5 136.7L900 127L900 301L878.5 301C857 301 814 301 771.2 301C728.3 301 685.7 301 642.8 301C600 301 557 301 514.2 301C471.3 301 428.7 301 385.8 301C343 301 300 301 257.2 301C214.3 301 171.7 301 128.8 301C86 301 43 301 21.5 301L0 301Z" fill="#1b1e21"></path><path d="M0 192L21.5 188.2C43 184.3 86 176.7 128.8 173.8C171.7 171 214.3 173 257.2 171.8C300 170.7 343 166.3 385.8 170.5C428.7 174.7 471.3 187.3 514.2 195.3C557 203.3 600 206.7 642.8 202.8C685.7 199 728.3 188 771.2 184.3C814 180.7 857 184.3 878.5 186.2L900 188L900 301L878.5 301C857 301 814 301 771.2 301C728.3 301 685.7 301 642.8 301C600 301 557 301 514.2 301C471.3 301 428.7 301 385.8 301C343 301 300 301 257.2 301C214.3 301 171.7 301 128.8 301C86 301 43 301 21.5 301L0 301Z" fill="#151719"></path><path d="M0 229L21.5 226.7C43 224.3 86 219.7 128.8 222.2C171.7 224.7 214.3 234.3 257.2 236.5C300 238.7 343 233.3 385.8 231.5C428.7 229.7 471.3 231.3 514.2 234.5C557 237.7 600 242.3 642.8 242.7C685.7 243 728.3 239 771.2 237.3C814 235.7 857 236.3 878.5 236.7L900 237L900 301L878.5 301C857 301 814 301 771.2 301C728.3 301 685.7 301 642.8 301C600 301 557 301 514.2 301C471.3 301 428.7 301 385.8 301C343 301 300 301 257.2 301C214.3 301 171.7 301 128.8 301C86 301 43 301 21.5 301L0 301Z" fill="#0d0f11"></path><path d="M0 265L21.5 264.5C43 264 86 263 128.8 261C171.7 259 214.3 256 257.2 255.8C300 255.7 343 258.3 385.8 256.8C428.7 255.3 471.3 249.7 514.2 251.3C557 253 600 262 642.8 261.5C685.7 261 728.3 251 771.2 245.2C814 239.3 857 237.7 878.5 236.8L900 236L900 301L878.5 301C857 301 814 301 771.2 301C728.3 301 685.7 301 642.8 301C600 301 557 301 514.2 301C471.3 301 428.7 301 385.8 301C343 301 300 301 257.2 301C214.3 301 171.7 301 128.8 301C86 301 43 301 21.5 301L0 301Z" fill="#030405"></path></svg>